# xmcd CD database file
#
# Track frame offsets:
#	187
#	22575
#	43837
#	66187
#
# Disc length: 1162 seconds
#
# Revision: 0
# Processed by: cddbd v1.5PL3 Copyright (c) Steve Scherf et al.
# Submitted via: CDex 1.50beta10
#
DISCID=29048804
DTITLE=浜崎あゆみ&つんく - LOVE 〜Destiny〜
DYEAR=1999
DGENRE=JPop
TTITLE0=LOVE 〜Destiny〜
TTITLE1=LOVE 〜since1999〜
TTITLE2=LOVE 〜Destiny〜(Instrumental)
TTITLE3=LOVE 〜since1999〜(Instrumental)
EXTD=YEAR: 1999
EXTT0=
EXTT1=
EXTT2=
EXTT3=
PLAYORDER=
